<svg xmlns="http://www.w3.org/2000/svg" viewBox="0 0 980 280" role="img" aria-labelledby="title desc">
  <title id="title">多说有益 logo</title>
  <desc id="desc">SpeakMore logo lockup with icon and Chinese name.</desc>
  <defs>
    <linearGradient id="bg" x1="36" y1="34" x2="206" y2="236" gradientUnits="userSpaceOnUse">
      <stop offset="0" stop-color="#071321"/>
      <stop offset="1" stop-color="#020712"/>
    </linearGradient>
    <linearGradient id="wave" x1="78" y1="84" x2="156" y2="196" gradientUnits="userSpaceOnUse">
      <stop offset="0" stop-color="#3ef7de"/>
      <stop offset="1" stop-color="#0cbda6"/>
    </linearGradient>
    <linearGradient id="cursor" x1="184" y1="96" x2="184" y2="176" gradientUnits="userSpaceOnUse">
      <stop offset="0" stop-color="#ffd83d"/>
      <stop offset="1" stop-color="#ffae16"/>
    </linearGradient>
  </defs>
  <rect x="36" y="40" width="200" height="200" rx="48" fill="url(#bg)"/>
  <g fill="url(#wave)">
    <rect x="78" y="124" width="18" height="52" rx="9"/>
    <rect x="110" y="100" width="18" height="100" rx="9"/>
    <rect x="142" y="74" width="18" height="152" rx="9"/>
    <rect x="174" y="102" width="18" height="96" rx="9"/>
  </g>
  <rect x="204" y="126" width="18" height="64" rx="9" fill="url(#cursor)"/>
  <path d="M198 80c5 21 12 28 33 33-21 5-28 12-33 33-5-21-12-28-33-33 21-5 28-12 33-33z" fill="#ffd83d"/>
  <text x="288" y="165" fill="#071321" font-family="PingFang SC, Hiragino Sans GB, Microsoft YaHei, Noto Sans CJK SC, sans-serif" font-size="92" font-weight="800" letter-spacing="0">多说有益</text>
</svg>
